<svg id="visual" viewBox="0 0 900 100" width="900" height="100" xmlns="http://www.w3.org/2000/svg" xmlns:xlink="http://www.w3.org/1999/xlink" version="1.1"><rect x="0" y="0" width="900" height="100" fill="#fff"></rect><path d="M0 31L16.7 28.7C33.3 26.3 66.7 21.7 100 25.5C133.3 29.3 166.7 41.7 200 55.2C233.3 68.7 266.7 83.3 300 81.8C333.3 80.3 366.7 62.7 400 47.8C433.3 33 466.7 21 500 26C533.3 31 566.7 53 600 59.7C633.3 66.3 666.7 57.7 700 49.2C733.3 40.7 766.7 32.3 800 27.5C833.3 22.7 866.7 21.3 883.3 20.7L900 20L900 101L883.3 101C866.7 101 833.3 101 800 101C766.7 101 733.3 101 700 101C666.7 101 633.3 101 600 101C566.7 101 533.3 101 500 101C466.7 101 433.3 101 400 101C366.7 101 333.3 101 300 101C266.7 101 233.3 101 200 101C166.7 101 133.3 101 100 101C66.7 101 33.3 101 16.7 101L0 101Z" fill="#4b2e2b" stroke-linecap="round" stroke-linejoin="miter"></path></svg>