<svg id="visual" viewBox="0 0 900 100" width="900" height="100" xmlns="http://www.w3.org/2000/svg" xmlns:xlink="http://www.w3.org/1999/xlink" version="1.1"><rect x="0" y="0" width="900" height="100" fill="#e6d8b5"></rect><path d="M0 63L7.2 56.3C14.3 49.7 28.7 36.3 43 37.3C57.3 38.3 71.7 53.7 86 57C100.3 60.3 114.7 51.7 128.8 51.2C143 50.7 157 58.3 171.2 57.7C185.3 57 199.7 48 214 45.2C228.3 42.3 242.7 45.7 257 49.8C271.3 54 285.7 59 300 53.3C314.3 47.7 328.7 31.3 343 26.3C357.3 21.3 371.7 27.7 386 33.8C400.3 40 414.7 46 428.8 50C443 54 457 56 471.2 50.7C485.3 45.3 499.7 32.7 514 26.2C528.3 19.7 542.7 19.3 557 28C571.3 36.7 585.7 54.3 600 60.3C614.3 66.3 628.7 60.7 643 56.3C657.3 52 671.7 49 686 49.3C700.3 49.7 714.7 53.3 728.8 52.2C743 51 757 45 771.2 45.2C785.3 45.3 799.7 51.7 814 51.7C828.3 51.7 842.7 45.3 857 43C871.3 40.7 885.7 42.3 892.8 43.2L900 44L900 0L892.8 0C885.7 0 871.3 0 857 0C842.7 0 828.3 0 814 0C799.7 0 785.3 0 771.2 0C757 0 743 0 728.8 0C714.7 0 700.3 0 686 0C671.7 0 657.3 0 643 0C628.7 0 614.3 0 600 0C585.7 0 571.3 0 557 0C542.7 0 528.3 0 514 0C499.7 0 485.3 0 471.2 0C457 0 443 0 428.8 0C414.7 0 400.3 0 386 0C371.7 0 357.3 0 343 0C328.7 0 314.3 0 300 0C285.7 0 271.3 0 257 0C242.7 0 228.3 0 214 0C199.7 0 185.3 0 171.2 0C157 0 143 0 128.8 0C114.7 0 100.3 0 86 0C71.7 0 57.3 0 43 0C28.7 0 14.3 0 7.2 0L0 0Z" fill="#4b2e2b" stroke-linecap="round" stroke-linejoin="miter"></path></svg>