<svg id="visual" viewBox="0 0 900 100" width="900" height="100" xmlns="http://www.w3.org/2000/svg" xmlns:xlink="http://www.w3.org/1999/xlink" version="1.1"><rect x="0" y="0" width="900" height="100" fill="#e6d8b5"></rect><path d="M0 41L16.7 35.5C33.3 30 66.7 19 100 19C133.3 19 166.7 30 200 39.5C233.3 49 266.7 57 300 54.2C333.3 51.3 366.7 37.7 400 39.3C433.3 41 466.7 58 500 54.3C533.3 50.7 566.7 26.3 600 24.5C633.3 22.7 666.7 43.3 700 46C733.3 48.7 766.7 33.3 800 24C833.3 14.7 866.7 11.3 883.3 9.7L900 8L900 0L883.3 0C866.7 0 833.3 0 800 0C766.7 0 733.3 0 700 0C666.7 0 633.3 0 600 0C566.7 0 533.3 0 500 0C466.7 0 433.3 0 400 0C366.7 0 333.3 0 300 0C266.7 0 233.3 0 200 0C166.7 0 133.3 0 100 0C66.7 0 33.3 0 16.7 0L0 0Z" fill="#4b2e2b" stroke-linecap="round" stroke-linejoin="miter"></path></svg>